<svg width="200" height="30" viewBox="0 0 200 30" fill="none" xmlns="http://www.w3.org/2000/svg">
<path d="M14.5399 0L6 4.93604V24.6802L14.5399 19.7441V0Z" fill="#282C33"/>
<path d="M23.0797 24.3727V14.8081L14.5399 19.7441V24.3727H23.0797Z" fill="#282C33"/>
<path d="M31 2H36.0531V20.3375H45.1281V24.3031H31V2Z" fill="#282C33"/>
<path d="M46.7905 18.5719V8.0625H51.2812V17.9531C51.2812 20.1656 52.2187 21.225 54.0937 21.225C54.5632 21.2493 55.0325 21.1715 55.4691 20.997C55.9057 20.8224 56.2993 20.5553 56.6228 20.214C56.9462 19.8728 57.1919 19.4654 57.3428 19.0201C57.4936 18.5747 57.5462 18.102 57.4968 17.6344V8.0625H61.9874V24.375H57.5249V21.8156C57.0381 22.75 56.2891 23.5219 55.3698 24.0365C54.4505 24.5511 53.4009 24.786 52.3499 24.7125C49.1624 24.7125 46.7905 22.8469 46.7905 18.5719Z" fill="#282C33"/>
<path d="M64.1343 16.425V16.1719C64.0865 15.0511 64.2721 13.9326 64.6792 12.8873C65.0863 11.842 65.7062 10.8927 66.4994 10.0995C67.2926 9.30626 68.242 8.68645 69.2873 8.27932C70.3326 7.8722 71.451 7.68664 72.5718 7.7344C76.3218 7.7344 79.8374 9.3844 80.2406 14.0625H75.9374C75.9142 13.658 75.8093 13.2623 75.629 12.8995C75.4487 12.5366 75.1967 12.214 74.8883 11.9512C74.5799 11.6884 74.2215 11.4907 73.8346 11.3702C73.4478 11.2497 73.0405 11.2088 72.6374 11.25C70.2937 11.25 68.7374 13.0031 68.7374 16.1156V16.3687C68.7374 19.6406 70.1999 21.3281 72.7312 21.3281C73.1677 21.3534 73.6049 21.2916 74.0173 21.1465C74.4298 21.0013 74.8093 20.7757 75.1338 20.4826C75.4583 20.1895 75.7213 19.8348 75.9075 19.4392C76.0938 19.0436 76.1995 18.615 76.2187 18.1781H80.3062C80.0624 22.0406 77.2499 24.7406 72.5155 24.7406C67.7812 24.7406 64.1343 21.75 64.1343 16.425Z" fill="#282C33"/>
<path d="M82.2656 3.38443C82.2432 2.86953 82.3755 2.35971 82.6456 1.92077C82.9158 1.48184 83.3112 1.13394 83.781 0.921973C84.2508 0.710011 84.7733 0.643718 85.2812 0.731649C85.789 0.819581 86.2588 1.05771 86.63 1.41528C87.0012 1.77286 87.2566 2.23347 87.3634 2.73767C87.4703 3.24187 87.4235 3.76651 87.2292 4.24388C87.0349 4.72124 86.702 5.12942 86.2735 5.41572C85.8449 5.70202 85.3404 5.85331 84.825 5.85005C84.4937 5.86135 84.1636 5.806 83.8541 5.68728C83.5447 5.56856 83.2622 5.38888 83.0235 5.15892C82.7848 4.92896 82.5947 4.65339 82.4645 4.34857C82.3343 4.04375 82.2667 3.71588 82.2656 3.38443ZM82.6125 8.07193H87.1031V24.375H82.6125V8.07193Z" fill="#282C33"/>
<path d="M89.0625 16.4531V16.2C89.0625 10.8375 92.1469 7.6875 96.2344 7.6875C97.2715 7.61412 98.308 7.84016 99.2204 8.33875C100.133 8.83734 100.883 9.5875 101.381 10.5V0.9375H105.938V24.375H101.334V21.6563C100.817 22.5907 100.057 23.368 99.1349 23.906C98.2124 24.444 97.1616 24.7226 96.0938 24.7125C92.1375 24.7125 89.0625 21.8812 89.0625 16.4531ZM101.503 16.2937V16.05C101.503 12.8063 100.069 11.1469 97.6031 11.1469C95.1375 11.1469 93.675 12.8625 93.675 16.1063V16.3594C93.675 19.6031 95.2406 21.1875 97.4813 21.1875C99.7219 21.1875 101.456 19.6031 101.456 16.2937H101.503Z" fill="#282C33"/>
</svg>
